<mxfile host="app.diagrams.net" modified="2022-04-17T21:23:40.346Z" agent="5.0 (Windows NT 10.0; Win64; x64) AppleWebKit/537.36 (KHTML, like Gecko) Chrome/100.0.4896.127 Safari/537.36" etag="-9jzUlO-rPwBO2QQhgbg" version="16.6.4" type="github">
  <diagram id="guvDHMPj3TdYjtBliflT" name="Page-1">
    <mxGraphModel dx="978" dy="575" grid="1" gridSize="10" guides="1" tooltips="1" connect="1" arrows="1" fold="1" page="1" pageScale="1" pageWidth="850" pageHeight="1100" math="0" shadow="0">
      <root>
        <mxCell id="0" />
        <mxCell id="1" parent="0" />
        <mxCell id="OknIFuaIhT5Wz1WmHEW9-1" value="Actor" style="shape=umlActor;verticalLabelPosition=bottom;verticalAlign=top;html=1;outlineConnect=0;" vertex="1" parent="1">
          <mxGeometry x="130" y="30" width="30" height="60" as="geometry" />
        </mxCell>
        <mxCell id="OknIFuaIhT5Wz1WmHEW9-2" value="Actor" style="shape=umlActor;verticalLabelPosition=bottom;verticalAlign=top;html=1;outlineConnect=0;" vertex="1" parent="1">
          <mxGeometry x="130" y="150" width="30" height="60" as="geometry" />
        </mxCell>
        <mxCell id="OknIFuaIhT5Wz1WmHEW9-3" value="Actor" style="shape=umlActor;verticalLabelPosition=bottom;verticalAlign=top;html=1;outlineConnect=0;" vertex="1" parent="1">
          <mxGeometry x="130" y="290" width="30" height="60" as="geometry" />
        </mxCell>
        <mxCell id="OknIFuaIhT5Wz1WmHEW9-4" value="" style="ellipse;whiteSpace=wrap;html=1;" vertex="1" parent="1">
          <mxGeometry x="260" y="30" width="110" height="50" as="geometry" />
        </mxCell>
        <mxCell id="OknIFuaIhT5Wz1WmHEW9-5" value="" style="ellipse;whiteSpace=wrap;html=1;" vertex="1" parent="1">
          <mxGeometry x="260" y="110" width="110" height="50" as="geometry" />
        </mxCell>
        <mxCell id="OknIFuaIhT5Wz1WmHEW9-6" value="" style="ellipse;whiteSpace=wrap;html=1;" vertex="1" parent="1">
          <mxGeometry x="260" y="190" width="110" height="50" as="geometry" />
        </mxCell>
        <mxCell id="OknIFuaIhT5Wz1WmHEW9-7" value="" style="ellipse;whiteSpace=wrap;html=1;" vertex="1" parent="1">
          <mxGeometry x="260" y="350" width="110" height="50" as="geometry" />
        </mxCell>
        <mxCell id="OknIFuaIhT5Wz1WmHEW9-8" value="Unregister" style="ellipse;whiteSpace=wrap;html=1;" vertex="1" parent="1">
          <mxGeometry x="260" y="270" width="110" height="50" as="geometry" />
        </mxCell>
        <mxCell id="OknIFuaIhT5Wz1WmHEW9-9" value="Validate Request" style="text;html=1;strokeColor=none;fillColor=none;align=center;verticalAlign=middle;whiteSpace=wrap;rounded=0;" vertex="1" parent="1">
          <mxGeometry x="265" y="40" width="100" height="30" as="geometry" />
        </mxCell>
        <mxCell id="OknIFuaIhT5Wz1WmHEW9-11" value="sellRequest" style="text;html=1;strokeColor=none;fillColor=none;align=center;verticalAlign=middle;whiteSpace=wrap;rounded=0;" vertex="1" parent="1">
          <mxGeometry x="290" y="120" width="60" height="30" as="geometry" />
        </mxCell>
        <mxCell id="OknIFuaIhT5Wz1WmHEW9-12" value="Register" style="text;html=1;strokeColor=none;fillColor=none;align=center;verticalAlign=middle;whiteSpace=wrap;rounded=0;" vertex="1" parent="1">
          <mxGeometry x="285" y="200" width="60" height="30" as="geometry" />
        </mxCell>
        <mxCell id="OknIFuaIhT5Wz1WmHEW9-14" value="getLowPriceItem" style="text;html=1;strokeColor=none;fillColor=none;align=center;verticalAlign=middle;whiteSpace=wrap;rounded=0;" vertex="1" parent="1">
          <mxGeometry x="290" y="360" width="60" height="30" as="geometry" />
        </mxCell>
        <mxCell id="OknIFuaIhT5Wz1WmHEW9-16" value="getLowAgeItem" style="ellipse;whiteSpace=wrap;html=1;" vertex="1" parent="1">
          <mxGeometry x="260" y="420" width="110" height="50" as="geometry" />
        </mxCell>
        <mxCell id="OknIFuaIhT5Wz1WmHEW9-18" value="buyRequest" style="ellipse;whiteSpace=wrap;html=1;" vertex="1" parent="1">
          <mxGeometry x="260" y="490" width="110" height="50" as="geometry" />
        </mxCell>
        <mxCell id="OknIFuaIhT5Wz1WmHEW9-19" value="" style="endArrow=classic;html=1;rounded=0;exitX=1;exitY=0.3333333333333333;exitDx=0;exitDy=0;exitPerimeter=0;entryX=0;entryY=0.5;entryDx=0;entryDy=0;" edge="1" parent="1" source="OknIFuaIhT5Wz1WmHEW9-1" target="OknIFuaIhT5Wz1WmHEW9-4">
          <mxGeometry width="50" height="50" relative="1" as="geometry">
            <mxPoint x="380" y="200" as="sourcePoint" />
            <mxPoint x="430" y="150" as="targetPoint" />
          </mxGeometry>
        </mxCell>
        <mxCell id="OknIFuaIhT5Wz1WmHEW9-20" value="" style="endArrow=classic;html=1;rounded=0;exitX=1;exitY=0.3333333333333333;exitDx=0;exitDy=0;exitPerimeter=0;entryX=0;entryY=0.5;entryDx=0;entryDy=0;" edge="1" parent="1" source="OknIFuaIhT5Wz1WmHEW9-2" target="OknIFuaIhT5Wz1WmHEW9-6">
          <mxGeometry width="50" height="50" relative="1" as="geometry">
            <mxPoint x="380" y="200" as="sourcePoint" />
            <mxPoint x="430" y="150" as="targetPoint" />
          </mxGeometry>
        </mxCell>
        <mxCell id="OknIFuaIhT5Wz1WmHEW9-21" value="" style="endArrow=classic;html=1;rounded=0;exitX=1;exitY=0.3333333333333333;exitDx=0;exitDy=0;exitPerimeter=0;entryX=0;entryY=0.647;entryDx=0;entryDy=0;entryPerimeter=0;" edge="1" parent="1" source="OknIFuaIhT5Wz1WmHEW9-2" target="OknIFuaIhT5Wz1WmHEW9-5">
          <mxGeometry width="50" height="50" relative="1" as="geometry">
            <mxPoint x="380" y="200" as="sourcePoint" />
            <mxPoint x="430" y="150" as="targetPoint" />
          </mxGeometry>
        </mxCell>
        <mxCell id="OknIFuaIhT5Wz1WmHEW9-22" value="" style="endArrow=classic;html=1;rounded=0;exitX=1;exitY=0.3333333333333333;exitDx=0;exitDy=0;exitPerimeter=0;entryX=0;entryY=0.5;entryDx=0;entryDy=0;" edge="1" parent="1" source="OknIFuaIhT5Wz1WmHEW9-3" target="OknIFuaIhT5Wz1WmHEW9-8">
          <mxGeometry width="50" height="50" relative="1" as="geometry">
            <mxPoint x="380" y="270" as="sourcePoint" />
            <mxPoint x="430" y="220" as="targetPoint" />
          </mxGeometry>
        </mxCell>
        <mxCell id="OknIFuaIhT5Wz1WmHEW9-23" value="" style="endArrow=classic;html=1;rounded=0;" edge="1" parent="1" target="OknIFuaIhT5Wz1WmHEW9-7">
          <mxGeometry width="50" height="50" relative="1" as="geometry">
            <mxPoint x="160" y="310" as="sourcePoint" />
            <mxPoint x="430" y="310" as="targetPoint" />
          </mxGeometry>
        </mxCell>
        <mxCell id="OknIFuaIhT5Wz1WmHEW9-24" value="" style="endArrow=classic;html=1;rounded=0;entryX=0.024;entryY=0.3;entryDx=0;entryDy=0;entryPerimeter=0;" edge="1" parent="1" target="OknIFuaIhT5Wz1WmHEW9-16">
          <mxGeometry width="50" height="50" relative="1" as="geometry">
            <mxPoint x="160" y="310" as="sourcePoint" />
            <mxPoint x="430" y="310" as="targetPoint" />
          </mxGeometry>
        </mxCell>
        <mxCell id="OknIFuaIhT5Wz1WmHEW9-25" value="" style="endArrow=classic;html=1;rounded=0;exitX=1;exitY=0.3333333333333333;exitDx=0;exitDy=0;exitPerimeter=0;entryX=0;entryY=0.5;entryDx=0;entryDy=0;" edge="1" parent="1" source="OknIFuaIhT5Wz1WmHEW9-3" target="OknIFuaIhT5Wz1WmHEW9-18">
          <mxGeometry width="50" height="50" relative="1" as="geometry">
            <mxPoint x="380" y="500" as="sourcePoint" />
            <mxPoint x="430" y="450" as="targetPoint" />
          </mxGeometry>
        </mxCell>
        <mxCell id="OknIFuaIhT5Wz1WmHEW9-26" value="" style="endArrow=classic;html=1;rounded=0;entryX=0.012;entryY=0.687;entryDx=0;entryDy=0;entryPerimeter=0;exitX=1;exitY=0.3333333333333333;exitDx=0;exitDy=0;exitPerimeter=0;" edge="1" parent="1" source="OknIFuaIhT5Wz1WmHEW9-3" target="OknIFuaIhT5Wz1WmHEW9-6">
          <mxGeometry width="50" height="50" relative="1" as="geometry">
            <mxPoint x="170" y="310" as="sourcePoint" />
            <mxPoint x="430" y="260" as="targetPoint" />
          </mxGeometry>
        </mxCell>
        <mxCell id="OknIFuaIhT5Wz1WmHEW9-27" value="" style="endArrow=classic;html=1;rounded=0;exitX=1;exitY=0.3333333333333333;exitDx=0;exitDy=0;exitPerimeter=0;entryX=0.055;entryY=0.247;entryDx=0;entryDy=0;entryPerimeter=0;" edge="1" parent="1" source="OknIFuaIhT5Wz1WmHEW9-2" target="OknIFuaIhT5Wz1WmHEW9-8">
          <mxGeometry width="50" height="50" relative="1" as="geometry">
            <mxPoint x="380" y="310" as="sourcePoint" />
            <mxPoint x="430" y="260" as="targetPoint" />
          </mxGeometry>
        </mxCell>
        <mxCell id="OknIFuaIhT5Wz1WmHEW9-29" value="Validator" style="text;html=1;align=center;verticalAlign=middle;resizable=0;points=[];autosize=1;strokeColor=none;fillColor=#FFFFFF;" vertex="1" parent="1">
          <mxGeometry x="115" y="90" width="60" height="20" as="geometry" />
        </mxCell>
        <mxCell id="OknIFuaIhT5Wz1WmHEW9-30" value="Seller" style="text;html=1;align=center;verticalAlign=middle;resizable=0;points=[];autosize=1;strokeColor=none;fillColor=#FFFFFF;" vertex="1" parent="1">
          <mxGeometry x="120" y="220" width="50" height="20" as="geometry" />
        </mxCell>
        <mxCell id="OknIFuaIhT5Wz1WmHEW9-31" value="Buyer" style="text;html=1;align=center;verticalAlign=middle;resizable=0;points=[];autosize=1;strokeColor=none;fillColor=#FFFFFF;" vertex="1" parent="1">
          <mxGeometry x="120" y="350" width="50" height="20" as="geometry" />
        </mxCell>
      </root>
    </mxGraphModel>
  </diagram>
</mxfile>
